<svg width="40" height="40" viewBox="0 0 40 40" fill="none" xmlns="http://www.w3.org/2000/svg">
<path d="M24 10H18C15.24 10 13 12.24 13 15H12C11.45 15 11 15.45 11 16C11 16.55 11.45 17 12 17H13V19H12C11.45 19 11 19.45 11 20C11 20.55 11.45 21 12 21H13V23H12C11.45 23 11 23.45 11 24C11 24.55 11.45 25 12 25H13C13 27.76 15.24 30 18 30H24C26.76 30 29 27.76 29 25V15C29 12.24 26.76 10 24 10ZM27 25C27 26.65 25.65 28 24 28H18C16.35 28 15 26.65 15 25C15.55 25 16 24.55 16 24C16 23.45 15.55 23 15 23V21C15.55 21 16 20.55 16 20C16 19.45 15.55 19 15 19V17C15.55 17 16 16.55 16 16C16 15.45 15.55 15 15 15C15 13.35 16.35 12 18 12H24C25.65 12 27 13.35 27 15V25Z" fill="#4B5258"/>
<path d="M21 20.5C22.65 20.5 24 19.15 24 17.5C24 15.85 22.65 14.5 21 14.5C19.35 14.5 18 15.85 18 17.5C18 19.15 19.35 20.5 21 20.5ZM21 16.5C21.55 16.5 22 16.95 22 17.5C22 18.05 21.55 18.5 21 18.5C20.45 18.5 20 18.05 20 17.5C20 16.95 20.45 16.5 21 16.5Z" fill="#4B5258"/>
<path d="M22.41 21.5H19.59C18.05 21.5 16.76 22.7 16.51 24.35C16.43 24.9 16.81 25.4 17.35 25.49C17.89 25.57 18.4 25.19 18.49 24.65C18.59 24 19.06 23.5 19.59 23.5H22.41C22.94 23.5 23.41 23.99 23.51 24.65C23.58 25.15 24.01 25.5 24.5 25.5C24.55 25.5 24.6 25.5 24.65 25.49C25.2 25.41 25.57 24.9 25.49 24.35C25.24 22.7 23.95 21.5 22.41 21.5Z" fill="#4B5258"/>
</svg>
