<svg width="40" height="40" viewBox="0 0 40 40" fill="none" xmlns="http://www.w3.org/2000/svg">
<path d="M27 14.5H24.75L24.41 13.32C24.01 11.93 22.86 11 21.55 11H18.43C17.12 11 15.97 11.93 15.57 13.32L15.23 14.5H13C12.45 14.5 12 14.95 12 15.5C12 16.05 12.45 16.5 13 16.5H13.08C13.35 19.73 13.61 23.03 13.87 26.38C13.98 27.74 14.99 28.87 16.33 29.12C17.55 29.34 18.77 29.45 20 29.45C21.23 29.45 22.45 29.34 23.67 29.12C25.02 28.87 26.03 27.75 26.13 26.38C26.39 23.02 26.65 19.73 26.92 16.5H27C27.55 16.5 28 16.05 28 15.5C28 14.95 27.55 14.5 27 14.5ZM17.51 13.87C17.66 13.35 18.03 13 18.45 13H21.57C21.98 13 22.36 13.35 22.51 13.87L22.69 14.5H17.34L17.52 13.87H17.51ZM24.14 26.23C24.1 26.69 23.76 27.07 23.31 27.15C21.11 27.55 18.89 27.55 16.69 27.15C16.24 27.07 15.9 26.69 15.86 26.23C15.6 22.93 15.35 19.68 15.08 16.5H24.9C24.64 19.68 24.38 22.93 24.12 26.23H24.14Z" fill="#FF3553"/>
<path d="M18.33 24.98C18.33 24.98 18.39 24.98 18.41 24.98C18.96 24.93 19.37 24.45 19.32 23.9L18.99 19.9C18.94 19.35 18.46 18.94 17.91 18.99C17.36 19.04 16.95 19.52 17 20.07L17.33 24.07C17.37 24.59 17.81 24.99 18.33 24.99V24.98Z" fill="#FF3553"/>
<path d="M21.58 24.97C21.58 24.97 21.64 24.97 21.66 24.97C22.17 24.97 22.61 24.57 22.66 24.05L22.99 20.05C23.04 19.5 22.63 19.02 22.08 18.97C21.52 18.92 21.05 19.33 21 19.88L20.67 23.88C20.62 24.43 21.03 24.91 21.58 24.96V24.97Z" fill="#FF3553"/>
</svg>
