<svg width="40" height="40" viewBox="0 0 40 40" fill="none" xmlns="http://www.w3.org/2000/svg">
<path d="M26.5032 25.22H22.5032C21.9532 25.22 21.5032 25.67 21.5032 26.22C21.5032 26.77 21.9532 27.22 22.5032 27.22H26.5032C27.0532 27.22 27.5032 26.77 27.5032 26.22C27.5032 25.67 27.0532 25.22 26.5032 25.22Z" fill="#3DAE2F"/>
<path d="M24.6732 19.99L25.7332 18.93C26.3932 18.27 26.7632 17.39 26.7632 16.46C26.7632 15.53 26.4032 14.65 25.7432 13.99C24.4232 12.67 22.1132 12.67 20.7932 13.99L13.6732 21.09C12.8132 21.96 12.3932 23.15 12.5232 24.36L12.7132 26.11C12.7632 26.57 13.1332 26.94 13.5932 26.99L15.3432 27.18C15.4932 27.2 15.6432 27.2 15.7932 27.2C16.8532 27.2 17.8632 26.79 18.6132 26.03L24.6632 19.98L24.6732 19.99ZM24.3232 15.4C24.6032 15.68 24.7632 16.06 24.7632 16.46C24.7632 16.86 24.6032 17.24 24.3232 17.52L23.9732 17.87L21.8532 15.75L22.2032 15.4C22.7732 14.83 23.7532 14.83 24.3232 15.4ZM17.2132 24.63C16.7832 25.06 16.1832 25.27 15.5832 25.2L14.6332 25.09L14.5232 24.14C14.4532 23.53 14.6632 22.94 15.0932 22.5L20.4332 17.16L22.5532 19.28L17.2132 24.62V24.63Z" fill="#3DAE2F"/>
</svg>
