<svg width="24" height="24" viewBox="0 0 24 24" fill="none" xmlns="http://www.w3.org/2000/svg">
<path d="M5.94 14.39C5.79 14.24 5.6 14.15 5.4 14.09C5.28 14.04 5.14 14 5 14C4.86 14 4.72 14.03 4.6 14.09C4.4 14.15 4.21 14.24 4.06 14.39L2.3 16.15C1.91 16.54 1.91 17.17 2.3 17.56C2.5 17.76 2.75 17.85 3.01 17.85C3.27 17.85 3.52 17.75 3.72 17.56L4.01 17.27V19.99C4.01 20.54 4.46 20.99 5.01 20.99C5.56 20.99 6.01 20.54 6.01 19.99V17.27L6.3 17.56C6.69 17.95 7.32 17.95 7.71 17.56C8.1 17.17 8.1 16.54 7.71 16.15L5.95 14.39H5.94Z" fill="#4B5258"/>
<path d="M17 3H7C4.24 3 2 5.24 2 8V11C2 11.55 2.45 12 3 12C3.55 12 4 11.55 4 11V8C4 6.35 5.35 5 7 5H17C18.65 5 20 6.35 20 8V8.5H17.5C15.57 8.5 14 10.07 14 12C14 13.93 15.57 15.5 17.5 15.5H20V16C20 17.65 18.65 19 17 19H10C9.45 19 9 19.45 9 20C9 20.55 9.45 21 10 21H17C19.76 21 22 18.76 22 16V8C22 5.24 19.76 3 17 3ZM17.5 13.5C16.67 13.5 16 12.83 16 12C16 11.17 16.67 10.5 17.5 10.5H20V13.5H17.5Z" fill="#4B5258"/>
</svg>
