<svg width="18" height="18" viewBox="0 0 18 18" fill="none" xmlns="http://www.w3.org/2000/svg">
<path d="M12 3H11.8125C11.8125 2.5875 11.475 2.25 11.0625 2.25C10.65 2.25 10.3125 2.5875 10.3125 3H7.6875C7.6875 2.5875 7.35 2.25 6.9375 2.25C6.525 2.25 6.1875 2.5875 6.1875 3H6C4.3425 3 3 4.3425 3 6V12.75C3 14.4075 4.3425 15.75 6 15.75H12C13.6575 15.75 15 14.4075 15 12.75V6C15 4.3425 13.6575 3 12 3ZM13.5 12.75C13.5 13.575 12.825 14.25 12 14.25H6C5.175 14.25 4.5 13.575 4.5 12.75V6C4.5 5.175 5.175 4.5 6 4.5H6.1875C6.1875 4.9125 6.525 5.25 6.9375 5.25C7.35 5.25 7.6875 4.9125 7.6875 4.5H10.3125C10.3125 4.9125 10.65 5.25 11.0625 5.25C11.475 5.25 11.8125 4.9125 11.8125 4.5H12C12.825 4.5 13.5 5.175 13.5 6V12.75Z" fill="#869098"/>
<path d="M11.25 7.6875H6.75C6.3375 7.6875 6 8.025 6 8.4375C6 8.85 6.3375 9.1875 6.75 9.1875H11.25C11.6625 9.1875 12 8.85 12 8.4375C12 8.025 11.6625 7.6875 11.25 7.6875Z" fill="#869098"/>
<path d="M9.75 10.3125H6.75C6.3375 10.3125 6 10.65 6 11.0625C6 11.475 6.3375 11.8125 6.75 11.8125H9.75C10.1625 11.8125 10.5 11.475 10.5 11.0625C10.5 10.65 10.1625 10.3125 9.75 10.3125Z" fill="#869098"/>
</svg>
